<svg width="15" height="15" viewBox="0 0 15 15" fill="none" xmlns="http://www.w3.org/2000/svg">
<path d="M6.1084 1.82555L6.93164 0.744286C7.28906 0.275444 7.8457 0 8.4375 0C9.27246 0 10.0078 0.547959 10.248 1.34792L10.7695 3.08849C11.0713 4.0965 11.8271 4.90526 12.8145 5.27447L13.9805 5.71108C14.5928 5.94257 15 6.52862 15 7.18207C15 7.67728 14.7686 8.14319 14.3701 8.43915L12.3984 9.91893C11.6865 10.4522 11.3086 11.3225 11.4082 12.2075L11.4814 12.8726C11.6074 14.0066 10.7197 15 9.57715 15C9.14355 15 8.71875 14.8506 8.38184 14.581L6.75879 13.2829C6.62695 13.1774 6.48633 13.0865 6.33398 13.0133C5.87109 12.7818 5.34668 12.7085 4.83984 12.7994L2.41406 13.2418C1.40039 13.4265 0.46875 12.647 0.46875 11.6185C0.46875 11.2317 0.606445 10.8566 0.852539 10.5577L1.18066 10.1651C1.6084 9.65521 1.84277 9.01055 1.84277 8.34538C1.84277 7.79449 1.68164 7.25532 1.37988 6.79234L0.257813 5.084C0.0908203 4.82614 0 4.52432 0 4.21664C0 3.23794 0.881836 2.49365 1.8457 2.65775L3.34863 2.91268C4.40039 3.09142 5.46387 2.6724 6.1084 1.82555Z" fill="#E2580A"/>
</svg>
